<svg width="82" height="132" viewBox="0 0 82 132" fill="none" xmlns="http://www.w3.org/2000/svg">
<path d="M56.9429 100.475C56.9429 77.0712 68.0439 69.6896 68.0439 69.6896C75.5004 62.2975 79.7563 52.2732 79.8954 41.7745C80.0346 31.2758 76.0458 21.1422 68.7878 13.5551C65.1359 9.89243 60.7971 6.98638 56.0201 5.00352C51.2431 3.02067 46.1217 2 40.9495 2C35.7773 2 30.6559 3.02067 25.8789 5.00352C21.1018 6.98638 16.763 9.89243 13.1111 13.5551C5.85314 21.1422 1.86439 31.2758 2.00352 41.7745C2.14265 52.2732 6.39852 62.2975 13.855 69.6896C13.855 69.6896 24.956 77.0712 24.956 100.475H56.9429Z" stroke="#DD1215" stroke-width="3" stroke-linecap="round" stroke-linejoin="round"/>
<path d="M48.358 130H33.5948" stroke="#DD1215" stroke-width="3" stroke-linecap="round" stroke-linejoin="round"/>
<path d="M53.2825 115.236H28.6772" stroke="#DD1215" stroke-width="3" stroke-linecap="round" stroke-linejoin="round"/>
<path d="M26.1572 51.208H55.7408" stroke="#DD1215" stroke-width="3" stroke-linecap="round" stroke-linejoin="round"/>
<path d="M40.9766 51.208V99.217" stroke="#DD1215" stroke-width="3" stroke-linecap="round" stroke-linejoin="round"/>
</svg>
