<svg width="151" height="111" viewBox="0 0 151 111" fill="none" xmlns="http://www.w3.org/2000/svg">
<path d="M22.656 70.112V92H36.384V70.112L58.464 28.832H43.104L29.472 57.92L15.84 28.832H0.576L22.656 70.112ZM68.6625 92.48C72.4065 92.48 75.0945 90.752 76.6305 88.208V92H80.5665V76.976C80.5665 71.648 77.3025 68.24 71.2545 68.24C65.5425 68.24 61.7505 71.312 61.5105 75.872H65.8305C65.9265 73.28 67.7505 71.456 71.3505 71.456C74.6625 71.456 76.3905 73.04 76.3905 75.392C76.3905 76.928 75.4785 77.504 73.1265 77.792L69.2385 78.224C64.5345 78.848 60.9825 81.152 60.9825 85.616C60.9825 89.792 64.3425 92.48 68.6625 92.48ZM69.5745 89.264C67.0785 89.264 65.3505 87.632 65.3505 85.52C65.3505 83.072 67.1265 81.776 70.1985 81.344L71.4945 81.152C72.9825 80.96 75.2865 80.528 76.4865 79.712V82.16C76.4865 86.336 74.2305 89.264 69.5745 89.264ZM87.1268 99.68H91.3028V88.208C92.6948 90.896 95.3348 92.432 98.5988 92.432C104.791 92.432 108.535 87.152 108.535 80.288C108.535 73.472 104.983 68.288 98.9828 68.288C95.6228 68.288 92.8388 70.112 91.3028 72.752V68.768H87.1268V99.68ZM97.8788 89.36C93.9428 89.36 91.2068 85.856 91.2068 80.288C91.2068 74.768 94.3748 71.456 97.8788 71.456C102.199 71.456 104.071 75.056 104.071 80.432C104.071 85.904 102.151 89.36 97.8788 89.36ZM113.939 99.68H118.115V88.208C119.507 90.896 122.147 92.432 125.411 92.432C131.603 92.432 135.347 87.152 135.347 80.288C135.347 73.472 131.795 68.288 125.795 68.288C122.435 68.288 119.651 70.112 118.115 72.752V68.768H113.939V99.68ZM124.691 89.36C120.755 89.36 118.019 85.856 118.019 80.288C118.019 74.768 121.187 71.456 124.691 71.456C129.011 71.456 130.883 75.056 130.883 80.432C130.883 85.904 128.963 89.36 124.691 89.36ZM140.272 68.768L142.048 82.352H145.36L147.136 68.768V60.416H140.272V68.768ZM140.608 85.28V92H146.8V85.28H140.608Z" fill="white"/>
<path d="M53 25.5C53 12.5213 42.4787 2 29.5 2C16.5213 2 6 12.5213 6 25.5" stroke="#0FA2D0" stroke-width="3"/>
<path d="M45.9323 25.3233C45.9323 16.1504 38.4962 8.71429 29.3233 8.71429C20.1504 8.71429 12.7143 16.1504 12.7143 25.3233" stroke="#0FA2D0" stroke-width="3"/>
<path d="M38.1579 25.3233C38.1579 20.6393 34.2816 16.8421 29.5 16.8421C24.7184 16.8421 20.8421 20.6393 20.8421 25.3233" stroke="#0FA2D0" stroke-width="3"/>
</svg>
